<mxfile host="app.diagrams.net" agent="Mozilla/5.0 (Windows NT 10.0; Win64; x64) AppleWebKit/537.36 (KHTML, like Gecko) Chrome/136.0.0.0 Safari/537.36" version="27.0.6">
  <diagram name="Page-1" id="txVllhG5hsH8_QfSyXP9">
    <mxGraphModel dx="2316" dy="1351" grid="1" gridSize="10" guides="1" tooltips="1" connect="1" arrows="1" fold="1" page="1" pageScale="1" pageWidth="850" pageHeight="1100" math="0" shadow="0">
      <root>
        <mxCell id="0" />
        <mxCell id="1" parent="0" />
        <mxCell id="pZ1IbM_3SG-5B5uzW5HU-1" value="&lt;font style=&quot;font-size: 36px;&quot;&gt;SYSTEM (e.g., ALFRED)&lt;/font&gt;" style="swimlane;whiteSpace=wrap;html=1;startSize=70;strokeWidth=4;" vertex="1" parent="1">
          <mxGeometry x="420" y="290" width="2660" height="3240" as="geometry" />
        </mxCell>
        <mxCell id="pZ1IbM_3SG-5B5uzW5HU-2" value="&lt;font style=&quot;font-size: 28px;&quot;&gt;USER GROUPS&lt;/font&gt;" style="swimlane;whiteSpace=wrap;html=1;startSize=60;strokeWidth=2;" vertex="1" parent="pZ1IbM_3SG-5B5uzW5HU-1">
          <mxGeometry x="1730" y="115" width="597.5" height="920" as="geometry" />
        </mxCell>
        <mxCell id="pZ1IbM_3SG-5B5uzW5HU-3" value="&lt;font style=&quot;font-size: 22px;&quot;&gt;User group 1&#39;s guidelines&lt;/font&gt;" style="rounded=0;whiteSpace=wrap;html=1;" vertex="1" parent="pZ1IbM_3SG-5B5uzW5HU-2">
          <mxGeometry x="192.5" y="120" width="210" height="79.81" as="geometry" />
        </mxCell>
        <mxCell id="pZ1IbM_3SG-5B5uzW5HU-4" value="&lt;font style=&quot;font-size: 22px;&quot;&gt;User group 2&#39;s guidelines&lt;/font&gt;" style="rounded=0;whiteSpace=wrap;html=1;" vertex="1" parent="pZ1IbM_3SG-5B5uzW5HU-2">
          <mxGeometry x="192.5" y="330.01" width="210" height="79.81" as="geometry" />
        </mxCell>
        <mxCell id="pZ1IbM_3SG-5B5uzW5HU-5" value="&lt;font style=&quot;font-size: 22px;&quot;&gt;&lt;font style=&quot;&quot;&gt;User group 3&lt;/font&gt;&lt;span style=&quot;background-color: transparent; color: light-dark(rgb(0, 0, 0), rgb(255, 255, 255));&quot;&gt;&#39;s guidelines&lt;/span&gt;&lt;/font&gt;" style="rounded=0;whiteSpace=wrap;html=1;" vertex="1" parent="pZ1IbM_3SG-5B5uzW5HU-2">
          <mxGeometry x="192.5" y="570.01" width="205" height="79.81" as="geometry" />
        </mxCell>
        <mxCell id="pZ1IbM_3SG-5B5uzW5HU-6" value="&lt;font style=&quot;font-size: 22px;&quot;&gt;&lt;font style=&quot;&quot;&gt;User group n&lt;/font&gt;&lt;span style=&quot;background-color: transparent; color: light-dark(rgb(0, 0, 0), rgb(255, 255, 255));&quot;&gt;&#39;s guidelines&lt;/span&gt;&lt;/font&gt;" style="rounded=0;whiteSpace=wrap;html=1;" vertex="1" parent="pZ1IbM_3SG-5B5uzW5HU-2">
          <mxGeometry x="197.5" y="760.19" width="205" height="79.81" as="geometry" />
        </mxCell>
        <mxCell id="pZ1IbM_3SG-5B5uzW5HU-7" value="&lt;font style=&quot;font-size: 28px;&quot;&gt;SYSTEM CONTEXT&amp;nbsp;&lt;/font&gt;&lt;div&gt;&lt;font style=&quot;font-size: 28px;&quot;&gt;(e.g. ALFRED)&lt;/font&gt;&lt;/div&gt;" style="swimlane;whiteSpace=wrap;html=1;strokeWidth=3;startSize=90;" vertex="1" parent="pZ1IbM_3SG-5B5uzW5HU-1">
          <mxGeometry x="280" y="110" width="1260" height="930" as="geometry" />
        </mxCell>
        <mxCell id="pZ1IbM_3SG-5B5uzW5HU-8" value="&lt;b&gt;&lt;font style=&quot;font-size: 24px;&quot;&gt;SYSTEM SUMMARY&lt;/font&gt;&lt;/b&gt;" style="rounded=0;whiteSpace=wrap;html=1;strokeWidth=2;" vertex="1" parent="pZ1IbM_3SG-5B5uzW5HU-7">
          <mxGeometry x="492.5" y="110" width="275" height="40" as="geometry" />
        </mxCell>
        <mxCell id="pZ1IbM_3SG-5B5uzW5HU-9" value="&lt;font style=&quot;font-size: 24px;&quot;&gt;PILLARS&lt;/font&gt;" style="swimlane;whiteSpace=wrap;html=1;startSize=40;strokeWidth=2;" vertex="1" parent="pZ1IbM_3SG-5B5uzW5HU-7">
          <mxGeometry x="203.75" y="180" width="852.5" height="720" as="geometry" />
        </mxCell>
        <mxCell id="pZ1IbM_3SG-5B5uzW5HU-10" value="&lt;font style=&quot;font-size: 23px;&quot;&gt;Platform-Enabling Pillars&lt;/font&gt;" style="swimlane;whiteSpace=wrap;html=1;startSize=50;" vertex="1" parent="pZ1IbM_3SG-5B5uzW5HU-9">
          <mxGeometry x="226.25" y="60" width="400" height="210" as="geometry" />
        </mxCell>
        <mxCell id="pZ1IbM_3SG-5B5uzW5HU-11" value="&lt;font style=&quot;font-size: 22px;&quot;&gt;Pi-DC (Developer Core)&amp;nbsp;&lt;/font&gt;" style="rounded=0;whiteSpace=wrap;html=1;" vertex="1" parent="pZ1IbM_3SG-5B5uzW5HU-10">
          <mxGeometry x="45" y="70" width="310" height="40" as="geometry" />
        </mxCell>
        <mxCell id="pZ1IbM_3SG-5B5uzW5HU-12" value="&lt;font style=&quot;font-size: 22px;&quot;&gt;Pi-GR (General Requirements)&lt;/font&gt;" style="rounded=0;whiteSpace=wrap;html=1;" vertex="1" parent="pZ1IbM_3SG-5B5uzW5HU-10">
          <mxGeometry x="45" y="140" width="310" height="40" as="geometry" />
        </mxCell>
        <mxCell id="pZ1IbM_3SG-5B5uzW5HU-13" value="&lt;font style=&quot;font-size: 23px;&quot;&gt;User-Facing Pillars&lt;/font&gt;" style="swimlane;whiteSpace=wrap;html=1;startSize=60;" vertex="1" parent="pZ1IbM_3SG-5B5uzW5HU-9">
          <mxGeometry x="51.25" y="290" width="750" height="410" as="geometry" />
        </mxCell>
        <mxCell id="pZ1IbM_3SG-5B5uzW5HU-14" value="&lt;font style=&quot;font-size: 22px;&quot;&gt;Pi-001 (e.g.&amp;nbsp;User-Driven Interaction Assistant)&lt;/font&gt;" style="rounded=0;whiteSpace=wrap;html=1;" vertex="1" parent="pZ1IbM_3SG-5B5uzW5HU-13">
          <mxGeometry x="47.5" y="90" width="310" height="80" as="geometry" />
        </mxCell>
        <mxCell id="pZ1IbM_3SG-5B5uzW5HU-15" value="&lt;font style=&quot;font-size: 22px;&quot;&gt;Pi-003 (e.g. Effective &amp;amp; Personalized Care)&lt;/font&gt;" style="rounded=0;whiteSpace=wrap;html=1;" vertex="1" parent="pZ1IbM_3SG-5B5uzW5HU-13">
          <mxGeometry x="392.5" y="90" width="310" height="80" as="geometry" />
        </mxCell>
        <mxCell id="pZ1IbM_3SG-5B5uzW5HU-16" value="&lt;font style=&quot;font-size: 22px;&quot;&gt;Pi-002 (e.g. Personalized Social Inclusion)&lt;/font&gt;" style="rounded=0;whiteSpace=wrap;html=1;" vertex="1" parent="pZ1IbM_3SG-5B5uzW5HU-13">
          <mxGeometry x="42.5" y="210" width="310" height="80" as="geometry" />
        </mxCell>
        <mxCell id="pZ1IbM_3SG-5B5uzW5HU-17" value="&lt;font style=&quot;font-size: 22px;&quot;&gt;Pi-004 (e.g. Physical &amp;amp; Cognitive Impairments Prevention)&lt;/font&gt;" style="rounded=0;whiteSpace=wrap;html=1;" vertex="1" parent="pZ1IbM_3SG-5B5uzW5HU-13">
          <mxGeometry x="392.5" y="210" width="310" height="80" as="geometry" />
        </mxCell>
        <mxCell id="pZ1IbM_3SG-5B5uzW5HU-18" value="&lt;font style=&quot;font-size: 22px;&quot;&gt;Pi-XXX (...)&lt;/font&gt;" style="rounded=0;whiteSpace=wrap;html=1;" vertex="1" parent="pZ1IbM_3SG-5B5uzW5HU-13">
          <mxGeometry x="220" y="310" width="310" height="80" as="geometry" />
        </mxCell>
        <mxCell id="pZ1IbM_3SG-5B5uzW5HU-19" style="edgeStyle=orthogonalEdgeStyle;rounded=0;orthogonalLoop=1;jettySize=auto;html=1;exitX=1;exitY=0.5;exitDx=0;exitDy=0;entryX=0;entryY=0.5;entryDx=0;entryDy=0;strokeWidth=2;startArrow=classic;startFill=1;" edge="1" parent="pZ1IbM_3SG-5B5uzW5HU-1" source="pZ1IbM_3SG-5B5uzW5HU-6" target="pZ1IbM_3SG-5B5uzW5HU-29">
          <mxGeometry relative="1" as="geometry" />
        </mxCell>
        <mxCell id="pZ1IbM_3SG-5B5uzW5HU-20" value="&lt;font style=&quot;font-size: 28px;&quot;&gt;PERSONAS&lt;/font&gt;" style="swimlane;whiteSpace=wrap;html=1;startSize=60;strokeWidth=2;" vertex="1" parent="pZ1IbM_3SG-5B5uzW5HU-1">
          <mxGeometry x="2970" y="115" width="370" height="920" as="geometry" />
        </mxCell>
        <mxCell id="pZ1IbM_3SG-5B5uzW5HU-21" value="&lt;font style=&quot;font-size: 22px;&quot;&gt;Group 1&lt;/font&gt;&lt;font style=&quot;font-size: 20px;&quot;&gt; &lt;span style=&quot;font-weight: normal;&quot;&gt;(e.g., Developers &amp;amp; App Creators&lt;/span&gt;&lt;/font&gt;" style="swimlane;horizontal=0;whiteSpace=wrap;html=1;startSize=90;" vertex="1" parent="pZ1IbM_3SG-5B5uzW5HU-20">
          <mxGeometry x="40" y="90" width="310" height="140" as="geometry" />
        </mxCell>
        <mxCell id="pZ1IbM_3SG-5B5uzW5HU-22" value="&lt;font style=&quot;font-size: 20px;&quot;&gt;P-001 (Daniel - Full-stack developer)&lt;/font&gt;" style="rounded=0;whiteSpace=wrap;html=1;" vertex="1" parent="pZ1IbM_3SG-5B5uzW5HU-21">
          <mxGeometry x="100" y="30" width="200" height="80" as="geometry" />
        </mxCell>
        <mxCell id="pZ1IbM_3SG-5B5uzW5HU-23" value="&lt;font style=&quot;font-size: 22px;&quot;&gt;Group 2&lt;/font&gt;&lt;font style=&quot;font-size: 20px;&quot;&gt;&amp;nbsp;&lt;/font&gt;&lt;div&gt;&lt;font style=&quot;font-size: 20px;&quot;&gt;&lt;span style=&quot;font-weight: normal;&quot;&gt;(e.g., Caregivers &amp;amp; Medical Staff)&lt;/span&gt;&lt;/font&gt;&lt;/div&gt;" style="swimlane;horizontal=0;whiteSpace=wrap;html=1;startSize=90;" vertex="1" parent="pZ1IbM_3SG-5B5uzW5HU-20">
          <mxGeometry x="40" y="270" width="310" height="200" as="geometry" />
        </mxCell>
        <mxCell id="pZ1IbM_3SG-5B5uzW5HU-24" value="&lt;font style=&quot;font-size: 20px;&quot;&gt;P-004 (Mike - Registered Nurse)&lt;/font&gt;" style="rounded=0;whiteSpace=wrap;html=1;" vertex="1" parent="pZ1IbM_3SG-5B5uzW5HU-23">
          <mxGeometry x="100" y="20" width="200" height="70" as="geometry" />
        </mxCell>
        <mxCell id="pZ1IbM_3SG-5B5uzW5HU-25" value="&lt;font style=&quot;font-size: 20px;&quot;&gt;P-006 (Sarah - Informal Caregiver)&lt;/font&gt;" style="rounded=0;whiteSpace=wrap;html=1;" vertex="1" parent="pZ1IbM_3SG-5B5uzW5HU-23">
          <mxGeometry x="100" y="110" width="200" height="70" as="geometry" />
        </mxCell>
        <mxCell id="pZ1IbM_3SG-5B5uzW5HU-26" value="&lt;font style=&quot;font-size: 22px;&quot;&gt;Group 3&lt;/font&gt;&lt;font style=&quot;font-size: 20px;&quot;&gt;&amp;nbsp;&lt;/font&gt;&lt;div&gt;&lt;font style=&quot;font-size: 20px;&quot;&gt;&lt;span style=&quot;font-weight: normal;&quot;&gt;(e.g., Older Adults)&lt;/span&gt;&lt;/font&gt;&lt;/div&gt;" style="swimlane;horizontal=0;whiteSpace=wrap;html=1;startSize=90;" vertex="1" parent="pZ1IbM_3SG-5B5uzW5HU-20">
          <mxGeometry x="40" y="510" width="310" height="200" as="geometry" />
        </mxCell>
        <mxCell id="pZ1IbM_3SG-5B5uzW5HU-27" value="&lt;font style=&quot;font-size: 20px;&quot;&gt;P-002 (Elena - Open-minded Older)&lt;/font&gt;" style="rounded=0;whiteSpace=wrap;html=1;" vertex="1" parent="pZ1IbM_3SG-5B5uzW5HU-26">
          <mxGeometry x="100" y="20" width="200" height="70" as="geometry" />
        </mxCell>
        <mxCell id="pZ1IbM_3SG-5B5uzW5HU-28" value="&lt;font style=&quot;font-size: 20px;&quot;&gt;P-005 (Olivia - Difficult Older)&lt;/font&gt;" style="rounded=0;whiteSpace=wrap;html=1;" vertex="1" parent="pZ1IbM_3SG-5B5uzW5HU-26">
          <mxGeometry x="100" y="110" width="200" height="70" as="geometry" />
        </mxCell>
        <mxCell id="pZ1IbM_3SG-5B5uzW5HU-29" value="&lt;span style=&quot;font-size: 22px;&quot;&gt;&lt;b&gt;Group n&lt;/b&gt;&lt;/span&gt;" style="rounded=0;whiteSpace=wrap;html=1;" vertex="1" parent="pZ1IbM_3SG-5B5uzW5HU-20">
          <mxGeometry x="92.5" y="760.19" width="205" height="79.81" as="geometry" />
        </mxCell>
        <mxCell id="pZ1IbM_3SG-5B5uzW5HU-30" style="edgeStyle=orthogonalEdgeStyle;rounded=0;orthogonalLoop=1;jettySize=auto;html=1;exitX=0;exitY=0.5;exitDx=0;exitDy=0;entryX=1;entryY=0.5;entryDx=0;entryDy=0;strokeWidth=2;startArrow=classic;startFill=1;" edge="1" parent="pZ1IbM_3SG-5B5uzW5HU-1" source="pZ1IbM_3SG-5B5uzW5HU-21" target="pZ1IbM_3SG-5B5uzW5HU-3">
          <mxGeometry relative="1" as="geometry">
            <mxPoint x="2780" y="255" as="targetPoint" />
          </mxGeometry>
        </mxCell>
        <mxCell id="pZ1IbM_3SG-5B5uzW5HU-31" style="edgeStyle=orthogonalEdgeStyle;rounded=0;orthogonalLoop=1;jettySize=auto;html=1;exitX=0;exitY=0.5;exitDx=0;exitDy=0;strokeWidth=2;startArrow=classic;startFill=1;" edge="1" parent="pZ1IbM_3SG-5B5uzW5HU-1" source="pZ1IbM_3SG-5B5uzW5HU-23" target="pZ1IbM_3SG-5B5uzW5HU-4">
          <mxGeometry relative="1" as="geometry">
            <mxPoint x="2790" y="455.38461538461524" as="targetPoint" />
          </mxGeometry>
        </mxCell>
        <mxCell id="pZ1IbM_3SG-5B5uzW5HU-32" style="edgeStyle=orthogonalEdgeStyle;rounded=0;orthogonalLoop=1;jettySize=auto;html=1;exitX=0;exitY=0.5;exitDx=0;exitDy=0;strokeWidth=2;startArrow=classic;startFill=1;" edge="1" parent="pZ1IbM_3SG-5B5uzW5HU-1" source="pZ1IbM_3SG-5B5uzW5HU-26" target="pZ1IbM_3SG-5B5uzW5HU-5">
          <mxGeometry relative="1" as="geometry" />
        </mxCell>
        <mxCell id="pZ1IbM_3SG-5B5uzW5HU-33" value="&lt;font style=&quot;font-size: 26px;&quot;&gt;USE CASE RELATED RULES&lt;/font&gt;" style="swimlane;whiteSpace=wrap;html=1;startSize=60;strokeWidth=3;" vertex="1" parent="pZ1IbM_3SG-5B5uzW5HU-1">
          <mxGeometry x="140" y="1240" width="890" height="470" as="geometry" />
        </mxCell>
        <mxCell id="pZ1IbM_3SG-5B5uzW5HU-34" value="&lt;b&gt;&lt;font style=&quot;font-size: 24px;&quot;&gt;USE CASE GUIDELINES&amp;nbsp;&lt;/font&gt;&lt;/b&gt;&lt;div&gt;&lt;b&gt;&lt;font style=&quot;font-size: 24px;&quot;&gt;(Definition, Structure, Examples, ...)&lt;/font&gt;&lt;/b&gt;&lt;/div&gt;" style="rounded=0;whiteSpace=wrap;html=1;strokeWidth=2;" vertex="1" parent="pZ1IbM_3SG-5B5uzW5HU-33">
          <mxGeometry x="145" y="240" width="600" height="80" as="geometry" />
        </mxCell>
        <mxCell id="pZ1IbM_3SG-5B5uzW5HU-35" value="&lt;b&gt;&lt;font style=&quot;font-size: 24px;&quot;&gt;USE CASE TASK EXTRACTION EXAMPLES&amp;nbsp;&lt;/font&gt;&lt;/b&gt;" style="rounded=0;whiteSpace=wrap;html=1;strokeWidth=2;" vertex="1" parent="pZ1IbM_3SG-5B5uzW5HU-33">
          <mxGeometry x="145" y="370" width="600" height="40" as="geometry" />
        </mxCell>
        <mxCell id="pZ1IbM_3SG-5B5uzW5HU-36" value="&lt;font style=&quot;font-size: 24px;&quot;&gt;&lt;b&gt;USE CASE TYPE CONFIG&amp;nbsp;&lt;/b&gt;&lt;/font&gt;&lt;div&gt;&lt;font style=&quot;font-size: 24px;&quot;&gt;(for writing the &quot;skeleton&quot; use case)&lt;/font&gt;&lt;/div&gt;" style="rounded=0;whiteSpace=wrap;html=1;strokeWidth=2;" vertex="1" parent="pZ1IbM_3SG-5B5uzW5HU-33">
          <mxGeometry x="145" y="120" width="600" height="70" as="geometry" />
        </mxCell>
        <mxCell id="pZ1IbM_3SG-5B5uzW5HU-37" value="&lt;font style=&quot;font-size: 26px;&quot;&gt;USER STORY RELATED RULES&lt;/font&gt;" style="swimlane;whiteSpace=wrap;html=1;startSize=60;strokeWidth=3;" vertex="1" parent="pZ1IbM_3SG-5B5uzW5HU-1">
          <mxGeometry x="1210" y="1220" width="1300" height="530" as="geometry" />
        </mxCell>
        <mxCell id="pZ1IbM_3SG-5B5uzW5HU-38" value="&lt;b&gt;&lt;font style=&quot;font-size: 24px;&quot;&gt;USER STORIES GUIDELINES&amp;nbsp;&lt;/font&gt;&lt;/b&gt;&lt;div&gt;&lt;b&gt;&lt;font style=&quot;font-size: 24px;&quot;&gt;(Definition, Structure, Examples, ...)&lt;/font&gt;&lt;/b&gt;&lt;/div&gt;" style="rounded=0;whiteSpace=wrap;html=1;strokeWidth=2;" vertex="1" parent="pZ1IbM_3SG-5B5uzW5HU-37">
          <mxGeometry x="350" y="100" width="600" height="80" as="geometry" />
        </mxCell>
        <mxCell id="pZ1IbM_3SG-5B5uzW5HU-39" value="&lt;span style=&quot;font-size: 26px;&quot;&gt;USER STORIES CLUSTERING&lt;/span&gt;" style="swimlane;whiteSpace=wrap;html=1;startSize=70;strokeWidth=2;" vertex="1" parent="pZ1IbM_3SG-5B5uzW5HU-37">
          <mxGeometry x="70" y="210" width="1160" height="270" as="geometry" />
        </mxCell>
        <mxCell id="pZ1IbM_3SG-5B5uzW5HU-40" value="&lt;b style=&quot;&quot;&gt;&lt;font style=&quot;font-size: 24px;&quot;&gt;NON-FUNCTIONAL USER STORIES CLUSTERS (Hard-coded by Pillars)&lt;/font&gt;&lt;/b&gt;" style="rounded=0;whiteSpace=wrap;html=1;strokeWidth=1;" vertex="1" parent="pZ1IbM_3SG-5B5uzW5HU-39">
          <mxGeometry x="60" y="130" width="465" height="80" as="geometry" />
        </mxCell>
        <mxCell id="pZ1IbM_3SG-5B5uzW5HU-41" value="&lt;b style=&quot;&quot;&gt;&lt;font style=&quot;font-size: 24px;&quot;&gt;FUNCTIONAL USER STORIES CLUSTERING GUIDELINES&amp;nbsp;&lt;/font&gt;&lt;/b&gt;&lt;div&gt;&lt;b style=&quot;&quot;&gt;&lt;font style=&quot;font-size: 24px;&quot;&gt;(Poort and de With technique)&lt;/font&gt;&lt;/b&gt;&lt;/div&gt;" style="rounded=0;whiteSpace=wrap;html=1;strokeWidth=1;" vertex="1" parent="pZ1IbM_3SG-5B5uzW5HU-39">
          <mxGeometry x="625" y="120" width="465" height="100" as="geometry" />
        </mxCell>
      </root>
    </mxGraphModel>
  </diagram>
</mxfile>
